<svg xmlns="http://www.w3.org/2000/svg" width="256" height="256" viewBox="0 0 128 128">
  <defs>
    <linearGradient id="g" x1="0" y1="0" x2="1" y2="1">
      <stop offset="0" stop-color="#6A5AE0" />
      <stop offset="1" stop-color="#20C997" />
    </linearGradient>
    <path
      id="bubble"
      d="M20 12h68a16 16 0 0 1 16 16v44a16 16 0 0 1-16 16H63l-14.8 13.5a6.5 6.5 0 0 1-10.9-5V88H20A16 16 0 0 1 4 72V28A16 16 0 0 1 20 12Z"
    />
  </defs>
  <g transform="translate(10 7)">
    <use href="#bubble" fill="none" stroke="url(#g)" stroke-width="5" />
    <g transform="translate(28 32)">
      <rect x="4" y="26" width="10" height="26" rx="3" fill="url(#g)" />
      <rect x="20" y="14" width="10" height="38" rx="3" fill="url(#g)" />
      <rect x="36" y="32" width="10" height="20" rx="3" fill="url(#g)" />
    </g>
    <path
      d="M64 74l8 8 19-20"
      fill="none"
      stroke="#20C997"
      stroke-width="6"
      stroke-linecap="round"
      stroke-linejoin="round"
    />
    <use href="#bubble" fill="none" stroke="#ffffff" opacity="0.06" />
  </g>
</svg>
